<?xml version="1.0" encoding="utf-8"?>
<!-- Generator: Adobe Illustrator 16.0.4, SVG Export Plug-In . SVG Version: 6.00 Build 0)  -->
<!DOCTYPE svg PUBLIC "-//W3C//DTD SVG 1.1//EN" "http://www.w3.org/Graphics/SVG/1.1/DTD/svg11.dtd">
<svg version="1.1" id="Layer_1" xmlns="http://www.w3.org/2000/svg" xmlns:xlink="http://www.w3.org/1999/xlink" x="0px" y="0px"
	 width="400.882px" height="427.279px" viewBox="0 0 400.882 427.279" enable-background="new 0 0 400.882 427.279"
	 xml:space="preserve">
<polygon fill="#243E90" points="173.933,170.585 247.553,95.447 323.074,170.967 258.996,170.967 258.9,223.603 293.165,223.603 
	293.228,201.48 355.875,201.48 400.882,245.725 97.275,245.725 139.994,203.006 204.93,203.006 204.875,222.887 239.925,222.84 
	239.925,170.585 "/>
<polygon fill="#31BBDB" points="324.225,352.14 250.605,427.279 175.084,351.758 239.162,351.758 239.257,299.123 204.993,299.123 
	204.93,321.245 142.282,321.245 97.275,277.001 400.882,277.001 358.164,319.719 293.228,319.719 293.284,299.838 258.233,299.886 
	258.233,352.14 "/>
<g>
	<g>
		<g>
			<path fill="#243E90" d="M2.511,162.508c0.246-10.708,4.595-20.289,13.051-28.747c11.319-11.316,23.098-16.083,35.347-14.303
				c6.829,1.049,12.331,3.45,16.511,7.204L53.212,140.87c-3.949-2.144-7.408-3.284-10.378-3.42
				c-5.289-0.229-10.419,2.142-15.389,7.111c-5.061,5.062-7.108,11.001-6.132,17.817c0.972,6.817,5.023,13.79,12.151,20.917
				c7.131,7.13,14.012,10.928,20.646,11.396c6.631,0.467,12.327-1.676,17.079-6.428c4.871-4.873,7.062-10.111,6.571-15.716
				c-0.223-3.052-1.508-6.683-3.854-10.892l14.115-14.114c5.71,8.145,8.236,16.889,7.569,26.234
				c-0.664,9.345-4.902,17.926-12.722,25.743c-9.674,9.675-20.21,14.347-31.611,14.02c-11.428-0.357-22.274-5.666-32.537-15.928
				C7.626,186.514,2.223,174.815,2.511,162.508z"/>
			<path fill="#243E90" d="M52.374,216.054c-0.396,0-0.79-0.006-1.188-0.017c-12.039-0.376-23.554-5.981-34.232-16.659
				C5.408,187.832-0.292,175.407,0.012,162.45c0.26-11.321,4.897-21.568,13.782-30.456c11.839-11.837,24.487-16.895,37.474-15.009
				c7.304,1.122,13.293,3.751,17.822,7.818l1.962,1.762L53.66,143.958l-1.641-0.891c-3.595-1.953-6.724-3.002-9.3-3.12
				c-0.19-0.008-0.388-0.013-0.584-0.013c-4.332,0-8.679,2.151-12.922,6.394c-4.516,4.517-6.291,9.651-5.425,15.695
				c0.89,6.238,4.74,12.8,11.444,19.504c6.658,6.658,13.069,10.247,19.054,10.669c5.914,0.418,10.876-1.442,15.135-5.702
				c4.362-4.365,6.275-8.855,5.849-13.73c-0.198-2.708-1.391-6.024-3.547-9.893l-0.919-1.65l17.556-17.555l1.709,2.438
				c6.024,8.592,8.721,17.961,8.016,27.847c-0.705,9.92-5.229,19.117-13.448,27.333C74.838,211.085,63.983,216.054,52.374,216.054z
				 M45.939,121.595c-9.736,0-19.361,4.688-28.609,13.934c-7.945,7.947-12.09,17.043-12.319,27.036
				c-0.271,11.54,4.937,22.735,15.479,33.277c9.749,9.749,20.127,14.862,30.847,15.196c0.343,0.01,0.69,0.015,1.038,0.015
				c10.235,0,19.9-4.476,28.727-13.304c7.343-7.341,11.379-15.467,11.996-24.153c0.554-7.764-1.29-15.189-5.484-22.112
				l-10.627,10.626c1.975,3.862,3.047,7.23,3.268,10.253c0.554,6.312-1.9,12.267-7.296,17.666
				c-5.257,5.257-11.676,7.676-19.022,7.154c-7.221-0.509-14.703-4.587-22.238-12.121c-7.487-7.487-11.812-15.001-12.858-22.333
				c-1.088-7.602,1.213-14.31,6.839-19.938c5.46-5.46,11.285-8.102,17.266-7.841c2.946,0.135,6.163,1.072,9.794,2.857l10.938-10.938
				c-3.515-2.481-7.924-4.14-13.146-4.941C49.01,121.709,47.459,121.595,45.939,121.595z"/>
		</g>
		<g>
			<path fill="#243E90" d="M74.622,90.399c0.243-10.707,4.592-20.29,13.05-28.747C98.988,50.336,110.77,45.57,123.018,47.35
				c6.827,1.049,12.329,3.45,16.511,7.203L125.323,68.76c-3.951-2.144-7.412-3.283-10.379-3.42
				c-5.291-0.229-10.42,2.142-15.391,7.112c-5.061,5.061-7.106,10.999-6.131,17.816c0.973,6.818,5.024,13.791,12.151,20.918
				c7.132,7.131,14.011,10.928,20.644,11.396c6.634,0.467,12.327-1.676,17.079-6.428c4.874-4.873,7.065-10.111,6.573-15.716
				c-0.225-3.052-1.51-6.683-3.854-10.892l14.115-14.114c5.71,8.145,8.233,16.889,7.569,26.232
				c-0.664,9.346-4.905,17.927-12.721,25.745c-9.675,9.674-20.213,14.348-31.612,14.02c-11.43-0.357-22.274-5.666-32.537-15.929
				C79.733,114.405,74.333,102.706,74.622,90.399z"/>
			<path fill="#243E90" d="M124.484,143.946c-0.396,0-0.792-0.006-1.189-0.017c-12.039-0.376-23.554-5.981-34.232-16.66
				c-11.545-11.543-17.245-23.968-16.94-36.928c0.257-11.321,4.894-21.569,13.782-30.457c11.834-11.835,24.485-16.897,37.473-15.008
				c7.302,1.122,13.291,3.75,17.822,7.817l1.964,1.762l-17.392,17.393l-1.64-0.89c-3.598-1.951-6.727-3.001-9.302-3.12
				c-0.19-0.008-0.388-0.013-0.584-0.013c-4.332,0-8.68,2.152-12.924,6.395c-4.514,4.515-6.289,9.648-5.424,15.695
				c0.89,6.238,4.741,12.8,11.444,19.504c6.659,6.658,13.069,10.247,19.052,10.669c5.916,0.415,10.876-1.443,15.136-5.702
				c4.364-4.363,6.278-8.854,5.851-13.73c-0.2-2.707-1.393-6.024-3.547-9.894l-0.918-1.649l17.556-17.554l1.709,2.438
				c6.022,8.589,8.719,17.958,8.016,27.845c-0.704,9.918-5.229,19.115-13.447,27.335
				C146.947,138.977,136.092,143.946,124.484,143.946z M118.047,49.487c-9.738,0-19.363,4.688-28.608,13.933
				c-7.947,7.947-12.091,17.043-12.318,27.036c-0.271,11.542,4.936,22.738,15.477,33.277c9.75,9.75,20.128,14.863,30.847,15.198
				c0.343,0.01,0.691,0.015,1.039,0.015c10.233,0,19.899-4.476,28.728-13.304c7.343-7.344,11.378-15.471,11.995-24.154
				c0.552-7.765-1.292-15.19-5.484-22.111l-10.628,10.626c1.973,3.862,3.045,7.229,3.268,10.251
				c0.554,6.315-1.9,12.271-7.299,17.668c-5.257,5.256-11.678,7.673-19.022,7.153c-7.22-0.509-14.701-4.587-22.236-12.121
				c-7.486-7.486-11.812-15-12.859-22.333c-1.087-7.604,1.213-14.312,6.838-19.937c5.461-5.461,11.274-8.102,17.267-7.842
				c2.901,0.134,6.187,1.095,9.794,2.859l10.938-10.939c-3.517-2.48-7.925-4.139-13.146-4.941
				C121.119,49.601,119.568,49.487,118.047,49.487z"/>
		</g>
		<g>
			<path fill="#243E90" d="M211.759,67.092l-14.113,14.114L134.088,17.65l14.116-14.115L211.759,67.092z"/>
			<path fill="#243E90" d="M197.646,84.742L130.553,17.65L148.204,0l67.091,67.092L197.646,84.742z M137.624,17.65l60.022,60.021
				l10.577-10.579l-60.02-60.021L137.624,17.65z"/>
		</g>
	</g>
</g>
</svg>
