<svg xmlns="http://www.w3.org/2000/svg" width="400.882" height="427.279" viewBox="0 0 400.882 427.279"><path fill="#243E90" d="M173.933 170.585l73.62-75.138 75.521 75.52h-64.078l-.096 52.636h34.265l.063-22.123h62.647l45.007 44.245h-303.607l42.719-42.719h64.936l-.055 19.881 35.05-.047v-52.255z"/><path fill="#31BBDB" d="M324.225 352.14l-73.62 75.139-75.521-75.521h64.078l.095-52.635h-34.264l-.063 22.122h-62.648l-45.007-44.244h303.607l-42.718 42.718h-64.936l.056-19.881-35.051.048v52.254z"/><g fill="#243E90"><path d="M2.511 162.508c.246-10.708 4.595-20.289 13.051-28.747 11.319-11.316 23.098-16.083 35.347-14.303 6.829 1.049 12.331 3.45 16.511 7.204l-14.208 14.208c-3.949-2.144-7.408-3.284-10.378-3.42-5.289-.229-10.419 2.142-15.389 7.111-5.061 5.062-7.108 11.001-6.132 17.817.972 6.817 5.023 13.79 12.151 20.917 7.131 7.13 14.012 10.928 20.646 11.396 6.631.467 12.327-1.676 17.079-6.428 4.871-4.873 7.062-10.111 6.571-15.716-.223-3.052-1.508-6.683-3.854-10.892l14.115-14.114c5.71 8.145 8.236 16.889 7.569 26.234-.664 9.345-4.902 17.926-12.722 25.743-9.674 9.675-20.21 14.347-31.611 14.02-11.428-.357-22.274-5.666-32.537-15.928-11.094-11.096-16.497-22.795-16.209-35.102zM52.374 216.054c-.396 0-.79-.006-1.188-.017-12.039-.376-23.554-5.981-34.232-16.659-11.546-11.546-17.246-23.971-16.942-36.928.26-11.321 4.897-21.568 13.782-30.456 11.839-11.837 24.487-16.895 37.474-15.009 7.304 1.122 13.293 3.751 17.822 7.818l1.962 1.762-17.392 17.393-1.641-.891c-3.595-1.953-6.724-3.002-9.3-3.12l-.584-.013c-4.332 0-8.679 2.151-12.922 6.394-4.516 4.517-6.291 9.651-5.425 15.695.89 6.238 4.74 12.8 11.444 19.504 6.658 6.658 13.069 10.247 19.054 10.669 5.914.418 10.876-1.442 15.135-5.702 4.362-4.365 6.275-8.855 5.849-13.73-.198-2.708-1.391-6.024-3.547-9.893l-.919-1.65 17.556-17.555 1.709 2.438c6.024 8.592 8.721 17.961 8.016 27.847-.705 9.92-5.229 19.117-13.448 27.333-9.799 9.801-20.654 14.77-32.263 14.77zm-6.435-94.459c-9.736 0-19.361 4.688-28.609 13.934-7.945 7.947-12.09 17.043-12.319 27.036-.271 11.54 4.937 22.735 15.479 33.277 9.749 9.749 20.127 14.862 30.847 15.196.343.01.69.015 1.038.015 10.235 0 19.9-4.476 28.727-13.304 7.343-7.341 11.379-15.467 11.996-24.153.554-7.764-1.29-15.189-5.484-22.112l-10.627 10.626c1.975 3.862 3.047 7.23 3.268 10.253.554 6.312-1.9 12.267-7.296 17.666-5.257 5.257-11.676 7.676-19.022 7.154-7.221-.509-14.703-4.587-22.238-12.121-7.487-7.487-11.812-15.001-12.858-22.333-1.088-7.602 1.213-14.31 6.839-19.938 5.46-5.46 11.285-8.102 17.266-7.841 2.946.135 6.163 1.072 9.794 2.857l10.938-10.938c-3.515-2.481-7.924-4.14-13.146-4.941-1.522-.219-3.073-.333-4.593-.333zM74.622 90.399c.243-10.707 4.592-20.29 13.05-28.747 11.316-11.316 23.098-16.082 35.346-14.302 6.827 1.049 12.329 3.45 16.511 7.203l-14.206 14.207c-3.951-2.144-7.412-3.283-10.379-3.42-5.291-.229-10.42 2.142-15.391 7.112-5.061 5.061-7.106 10.999-6.131 17.816.973 6.818 5.024 13.791 12.151 20.918 7.132 7.131 14.011 10.928 20.644 11.396 6.634.467 12.327-1.676 17.079-6.428 4.874-4.873 7.065-10.111 6.573-15.716-.225-3.052-1.51-6.683-3.854-10.892l14.115-14.114c5.71 8.145 8.233 16.889 7.569 26.232-.664 9.346-4.905 17.927-12.721 25.745-9.675 9.674-20.213 14.348-31.612 14.02-11.43-.357-22.274-5.666-32.537-15.929-11.096-11.095-16.496-22.794-16.207-35.101zM124.484 143.946c-.396 0-.792-.006-1.189-.017-12.039-.376-23.554-5.981-34.232-16.66-11.545-11.543-17.245-23.968-16.94-36.928.257-11.321 4.894-21.569 13.782-30.457 11.834-11.835 24.485-16.897 37.473-15.008 7.302 1.122 13.291 3.75 17.822 7.817l1.964 1.762-17.392 17.393-1.64-.89c-3.598-1.951-6.727-3.001-9.302-3.12l-.584-.013c-4.332 0-8.68 2.152-12.924 6.395-4.514 4.515-6.289 9.648-5.424 15.695.89 6.238 4.741 12.8 11.444 19.504 6.659 6.658 13.069 10.247 19.052 10.669 5.916.415 10.876-1.443 15.136-5.702 4.364-4.363 6.278-8.854 5.851-13.73-.2-2.707-1.393-6.024-3.547-9.894l-.918-1.649 17.556-17.554 1.709 2.438c6.022 8.589 8.719 17.958 8.016 27.845-.704 9.918-5.229 19.115-13.447 27.335-9.803 9.8-20.658 14.769-32.266 14.769zm-6.437-94.459c-9.738 0-19.363 4.688-28.608 13.933-7.947 7.947-12.091 17.043-12.318 27.036-.271 11.542 4.936 22.738 15.477 33.277 9.75 9.75 20.128 14.863 30.847 15.198.343.01.691.015 1.039.015 10.233 0 19.899-4.476 28.728-13.304 7.343-7.344 11.378-15.471 11.995-24.154.552-7.765-1.292-15.19-5.484-22.111l-10.628 10.626c1.973 3.862 3.045 7.229 3.268 10.251.554 6.315-1.9 12.271-7.299 17.668-5.257 5.256-11.678 7.673-19.022 7.153-7.22-.509-14.701-4.587-22.236-12.121-7.486-7.486-11.812-15-12.859-22.333-1.087-7.604 1.213-14.312 6.838-19.937 5.461-5.461 11.274-8.102 17.267-7.842 2.901.134 6.187 1.095 9.794 2.859l10.938-10.939c-3.517-2.48-7.925-4.139-13.146-4.941-1.519-.22-3.07-.334-4.591-.334zM211.759 67.092l-14.113 14.114-63.558-63.556 14.116-14.115 63.555 63.557zM197.646 84.742l-67.093-67.092 17.651-17.65 67.091 67.092-17.649 17.65zm-60.022-67.092l60.022 60.021 10.577-10.579-60.02-60.021-10.579 10.579z"/></g></svg>