<?xml version="1.0" encoding="utf-8"?>
<!-- Generator: Adobe Illustrator 16.0.4, SVG Export Plug-In . SVG Version: 6.00 Build 0)  -->
<!DOCTYPE svg PUBLIC "-//W3C//DTD SVG 1.1//EN" "http://www.w3.org/Graphics/SVG/1.1/DTD/svg11.dtd">
<svg version="1.1" id="Layer_1" xmlns="http://www.w3.org/2000/svg" xmlns:xlink="http://www.w3.org/1999/xlink" x="0px" y="0px"
	 width="340px" height="80px" viewBox="0 0 340 80" enable-background="new 0 0 340 80" xml:space="preserve">
<g>
	<polygon fill="#243E8F" points="32.505,31.88 46.265,17.838 60.377,31.952 48.403,31.952 48.385,41.788 54.789,41.788 54.8,37.654 
		66.508,37.654 74.919,45.923 18.18,45.923 26.163,37.939 38.299,37.939 38.289,41.655 44.839,41.646 44.839,31.88 	"/>
	<polygon fill="#2FBADB" points="60.593,65.811 46.834,79.854 32.72,65.739 44.696,65.739 44.713,55.902 38.311,55.902 
		38.299,60.036 26.59,60.036 18.18,51.769 74.919,51.769 66.937,59.752 54.8,59.752 54.811,56.035 48.26,56.045 48.26,65.811 	"/>
	<g>
		<path fill="#243E8F" d="M0.469,30.371c0.046-2.001,0.859-3.792,2.439-5.372c2.115-2.115,4.317-3.007,6.605-2.674
			c1.276,0.196,2.305,0.645,3.086,1.346l-2.655,2.655c-0.738-0.401-1.384-0.614-1.939-0.639c-0.988-0.043-1.947,0.4-2.876,1.329
			c-0.946,0.945-1.329,2.056-1.146,3.33c0.182,1.274,0.938,2.577,2.271,3.909c1.333,1.333,2.619,2.042,3.859,2.13
			c1.239,0.087,2.304-0.314,3.192-1.202c0.91-0.911,1.32-1.89,1.229-2.937c-0.042-0.571-0.282-1.249-0.721-2.036l2.638-2.638
			c1.066,1.522,1.539,3.156,1.415,4.902c-0.124,1.746-0.917,3.351-2.377,4.811c-1.808,1.808-3.777,2.682-5.908,2.621
			c-2.136-0.067-4.163-1.059-6.081-2.977C1.425,34.857,0.415,32.671,0.469,30.371z"/>
		<path fill="#243E8F" d="M9.788,40.378c-0.074,0-0.148-0.001-0.222-0.003c-2.25-0.071-4.402-1.118-6.398-3.113
			c-2.158-2.159-3.223-4.48-3.166-6.902c0.049-2.116,0.916-4.031,2.576-5.692c2.213-2.212,4.578-3.157,7.003-2.805
			c1.365,0.21,2.484,0.701,3.331,1.461l0.367,0.33l-3.25,3.25l-0.307-0.166c-0.672-0.365-1.257-0.561-1.738-0.583
			c-0.036-0.002-0.073-0.002-0.109-0.002c-0.81,0-1.623,0.402-2.415,1.195c-0.844,0.844-1.176,1.804-1.014,2.933
			c0.167,1.166,0.886,2.392,2.139,3.646c1.244,1.244,2.442,1.915,3.561,1.993c1.108,0.079,2.033-0.27,2.829-1.065
			c0.815-0.816,1.173-1.656,1.093-2.567c-0.037-0.506-0.26-1.125-0.663-1.848l-0.172-0.309l3.281-3.281l0.319,0.455
			c1.126,1.606,1.629,3.357,1.498,5.205c-0.131,1.854-0.977,3.573-2.513,5.109C13.986,39.45,11.958,40.378,9.788,40.378z
			 M8.585,22.724c-1.82,0-3.619,0.876-5.347,2.605c-1.485,1.485-2.259,3.185-2.302,5.053c-0.051,2.157,0.922,4.249,2.892,6.219
			c1.822,1.822,3.762,2.777,5.765,2.84c0.064,0.001,0.129,0.002,0.194,0.002c1.913,0,3.719-0.836,5.369-2.486
			c1.373-1.372,2.126-2.891,2.242-4.514c0.103-1.451-0.241-2.838-1.025-4.132l-1.986,1.985c0.369,0.722,0.57,1.351,0.611,1.916
			c0.104,1.18-0.355,2.293-1.364,3.302c-0.982,0.983-2.18,1.433-3.555,1.337c-1.35-0.095-2.748-0.856-4.156-2.265
			c-1.399-1.399-2.208-2.804-2.403-4.174c-0.203-1.42,0.227-2.674,1.278-3.726c1.02-1.02,2.109-1.513,3.227-1.465
			c0.551,0.025,1.152,0.201,1.831,0.534L11.9,23.71c-0.657-0.463-1.481-0.773-2.457-0.923C9.159,22.746,8.869,22.724,8.585,22.724z"
			/>
	</g>
	<g>
		<path fill="#243E8F" d="M13.946,16.895c0.045-2,0.858-3.792,2.439-5.373c2.114-2.115,4.316-3.005,6.605-2.673
			c1.276,0.196,2.304,0.645,3.086,1.347l-2.655,2.654c-0.739-0.4-1.385-0.613-1.94-0.639c-0.989-0.043-1.947,0.4-2.876,1.329
			c-0.946,0.946-1.328,2.056-1.146,3.329c0.182,1.275,0.939,2.578,2.271,3.91s2.618,2.042,3.858,2.129
			c1.24,0.087,2.304-0.313,3.192-1.202c0.911-0.91,1.32-1.889,1.228-2.937c-0.042-0.57-0.282-1.249-0.72-2.036l2.638-2.638
			c1.067,1.523,1.539,3.157,1.415,4.903c-0.124,1.747-0.917,3.351-2.377,4.812c-1.808,1.808-3.777,2.681-5.908,2.62
			c-2.136-0.066-4.163-1.059-6.081-2.977C14.901,21.381,13.892,19.194,13.946,16.895z"/>
		<path fill="#243E8F" d="M23.265,26.902c-0.074,0-0.148-0.001-0.223-0.003c-2.25-0.07-4.402-1.118-6.397-3.113
			c-2.158-2.158-3.223-4.479-3.166-6.902c0.048-2.116,0.915-4.031,2.576-5.692c2.211-2.211,4.575-3.158,7.003-2.805
			c1.364,0.209,2.483,0.701,3.331,1.461l0.367,0.329l-3.25,3.251l-0.307-0.167c-0.672-0.365-1.257-0.561-1.739-0.583
			c-0.035-0.002-0.072-0.002-0.109-0.002c-0.81,0-1.622,0.402-2.416,1.195c-0.844,0.844-1.175,1.803-1.013,2.933
			c0.166,1.167,0.886,2.393,2.139,3.646c1.244,1.244,2.442,1.915,3.561,1.994c1.105,0.077,2.033-0.271,2.829-1.066
			c0.815-0.815,1.173-1.655,1.093-2.566c-0.037-0.506-0.26-1.126-0.663-1.849l-0.171-0.309l3.281-3.28l0.319,0.455
			c1.125,1.605,1.629,3.356,1.498,5.204c-0.131,1.854-0.977,3.572-2.513,5.108C27.462,25.973,25.434,26.902,23.265,26.902z
			 M22.061,9.249c-1.82,0-3.618,0.876-5.346,2.604c-1.486,1.485-2.26,3.185-2.302,5.053c-0.051,2.157,0.922,4.249,2.892,6.219
			c1.822,1.822,3.762,2.778,5.765,2.84c0.065,0.001,0.13,0.003,0.195,0.003c1.913,0,3.719-0.837,5.368-2.487
			c1.373-1.373,2.126-2.892,2.242-4.514c0.103-1.452-0.242-2.839-1.025-4.132l-1.986,1.986c0.369,0.722,0.569,1.352,0.611,1.916
			c0.104,1.18-0.355,2.293-1.364,3.302c-0.982,0.982-2.182,1.434-3.555,1.337c-1.349-0.095-2.747-0.857-4.155-2.265
			c-1.399-1.399-2.208-2.804-2.403-4.174c-0.203-1.421,0.227-2.675,1.278-3.726c1.021-1.021,2.107-1.514,3.228-1.466
			c0.542,0.025,1.156,0.205,1.83,0.535l2.044-2.044c-0.657-0.463-1.481-0.774-2.457-0.923C22.636,9.27,22.346,9.249,22.061,9.249z"
			/>
	</g>
	<g>
		<path fill="#243E8F" d="M39.575,12.539l-2.638,2.638L25.059,3.298l2.638-2.638L39.575,12.539z"/>
		<path fill="#243E8F" d="M36.938,15.837L24.398,3.298L27.697,0l12.538,12.539L36.938,15.837z M25.72,3.298l11.218,11.217
			l1.977-1.977L27.697,1.321L25.72,3.298z"/>
	</g>
</g>
<text transform="matrix(1 0 0 1 97.9229 36.5283)"><tspan x="0" y="0" fill="#243E8F" font-family="'Arial-BoldMT'" font-size="17.8638">PROVIDERS OF IT</tspan><tspan x="0" y="18" fill="#243E8F" font-family="'Arial-BoldMT'" font-size="17.8638">CONNECTIVITY SOLUTIONS</tspan></text>
</svg>
