<svg xmlns="http://www.w3.org/2000/svg" width="340" height="80" viewBox="0 0 340 80"><path fill="#243E8F" d="M32.505 31.88l13.76-14.042 14.112 14.114h-11.974l-.018 9.836h6.404l.011-4.134h11.708l8.411 8.269h-56.739l7.983-7.984h12.136l-.01 3.716 6.55-.009v-9.766z"/><path fill="#2FBADB" d="M60.593 65.811l-13.759 14.043-14.114-14.115h11.976l.017-9.837h-6.402l-.012 4.134h-11.709l-8.41-8.266h56.739l-7.982 7.982h-12.137l.011-3.717-6.551.01v9.766z"/><g fill="#243E8F"><path d="M.469 30.371c.046-2.001.859-3.792 2.439-5.372 2.115-2.115 4.317-3.007 6.605-2.674 1.276.196 2.305.645 3.086 1.346l-2.655 2.655c-.738-.401-1.384-.614-1.939-.639-.988-.043-1.947.4-2.876 1.329-.946.945-1.329 2.056-1.146 3.33.182 1.274.938 2.577 2.271 3.909 1.333 1.333 2.619 2.042 3.859 2.13 1.239.087 2.304-.313 3.192-1.202.91-.911 1.32-1.89 1.229-2.937-.042-.571-.282-1.249-.721-2.036l2.638-2.638c1.066 1.521 1.539 3.156 1.415 4.902-.124 1.746-.917 3.351-2.377 4.811-1.808 1.808-3.777 2.682-5.908 2.621-2.136-.067-4.163-1.059-6.081-2.978-2.075-2.071-3.085-4.257-3.031-6.557zM9.788 40.378l-.222-.003c-2.25-.071-4.402-1.118-6.398-3.113-2.158-2.159-3.223-4.48-3.166-6.902.049-2.116.916-4.031 2.576-5.692 2.213-2.212 4.578-3.157 7.003-2.805 1.365.21 2.484.701 3.331 1.461l.367.33-3.25 3.25-.307-.166c-.672-.365-1.257-.562-1.738-.583l-.109-.002c-.81 0-1.623.402-2.415 1.195-.844.844-1.176 1.804-1.014 2.933.167 1.166.886 2.392 2.139 3.646 1.244 1.244 2.442 1.915 3.561 1.993 1.108.079 2.033-.27 2.829-1.065.815-.816 1.173-1.656 1.093-2.567-.037-.506-.26-1.125-.663-1.848l-.172-.309 3.281-3.281.319.455c1.126 1.606 1.629 3.357 1.498 5.205-.131 1.854-.977 3.573-2.513 5.109-1.832 1.831-3.86 2.759-6.03 2.759zm-1.203-17.654c-1.82 0-3.619.876-5.347 2.605-1.485 1.485-2.259 3.185-2.302 5.053-.051 2.157.922 4.249 2.892 6.219 1.822 1.822 3.762 2.777 5.765 2.84l.194.002c1.913 0 3.719-.836 5.369-2.486 1.373-1.372 2.126-2.891 2.242-4.514.103-1.451-.241-2.838-1.025-4.132l-1.986 1.985c.369.722.57 1.351.611 1.916.104 1.18-.355 2.293-1.364 3.302-.982.983-2.18 1.433-3.555 1.337-1.35-.095-2.748-.856-4.156-2.265-1.399-1.399-2.208-2.804-2.403-4.174-.203-1.42.227-2.674 1.278-3.726 1.02-1.02 2.109-1.513 3.227-1.465.551.025 1.152.201 1.831.534l2.044-2.045c-.657-.463-1.481-.773-2.457-.923-.284-.041-.574-.063-.858-.063z"/></g><g fill="#243E8F"><path d="M13.946 16.895c.045-2 .858-3.792 2.439-5.373 2.114-2.115 4.316-3.005 6.605-2.673 1.276.196 2.304.645 3.086 1.347l-2.655 2.654c-.739-.4-1.385-.613-1.94-.639-.989-.043-1.947.4-2.876 1.329-.946.946-1.328 2.056-1.146 3.329.182 1.275.939 2.578 2.271 3.91 1.332 1.332 2.618 2.042 3.858 2.129 1.24.087 2.304-.313 3.192-1.202.911-.91 1.32-1.889 1.228-2.937-.042-.57-.282-1.249-.72-2.036l2.638-2.638c1.067 1.523 1.539 3.157 1.415 4.903-.124 1.747-.917 3.351-2.377 4.812-1.808 1.808-3.777 2.681-5.908 2.62-2.136-.066-4.163-1.059-6.081-2.977-2.074-2.072-3.083-4.259-3.029-6.558zM23.265 26.902l-.223-.003c-2.25-.07-4.402-1.118-6.397-3.113-2.158-2.158-3.223-4.479-3.166-6.902.048-2.116.915-4.031 2.576-5.692 2.211-2.211 4.575-3.158 7.003-2.805 1.364.209 2.483.701 3.331 1.461l.367.329-3.25 3.251-.307-.167c-.672-.365-1.257-.561-1.739-.583l-.109-.002c-.81 0-1.622.402-2.416 1.195-.844.844-1.175 1.803-1.013 2.933.166 1.167.886 2.394 2.139 3.646 1.244 1.244 2.442 1.915 3.561 1.994 1.105.077 2.033-.271 2.829-1.066.815-.815 1.173-1.655 1.093-2.566-.037-.506-.26-1.126-.663-1.849l-.171-.309 3.281-3.28.319.455c1.125 1.605 1.629 3.356 1.498 5.204-.131 1.854-.977 3.572-2.513 5.108-1.833 1.832-3.861 2.761-6.03 2.761zm-1.204-17.653c-1.82 0-3.618.876-5.346 2.604-1.486 1.485-2.26 3.185-2.302 5.053-.051 2.157.922 4.249 2.892 6.219 1.822 1.822 3.762 2.778 5.765 2.84l.195.003c1.913 0 3.719-.837 5.368-2.487 1.373-1.373 2.126-2.892 2.242-4.514.103-1.452-.242-2.839-1.025-4.132l-1.986 1.986c.369.722.569 1.352.611 1.916.104 1.18-.355 2.293-1.364 3.302-.982.982-2.182 1.434-3.555 1.337-1.349-.095-2.747-.857-4.155-2.265-1.399-1.399-2.208-2.804-2.403-4.174-.203-1.421.227-2.675 1.278-3.726 1.021-1.021 2.107-1.514 3.228-1.466.542.025 1.156.205 1.83.535l2.044-2.044c-.657-.463-1.481-.774-2.457-.923-.285-.043-.575-.064-.86-.064z"/></g><g fill="#243E8F"><path d="M39.575 12.539l-2.638 2.638-11.878-11.879 2.638-2.638 11.878 11.879zM36.938 15.837l-12.54-12.539 3.299-3.298 12.538 12.539-3.297 3.298zm-11.218-12.539l11.218 11.217 1.977-1.977-11.218-11.217-1.977 1.977z"/></g><g enable-background="new" fill="#243E8F"><path d="M99.223 36.528v-12.787h4.143c1.57 0 2.593.063 3.07.191.733.192 1.346.609 1.84 1.252s.742 1.473.742 2.49c0 .785-.143 1.445-.428 1.98-.285.535-.647.955-1.086 1.26-.439.306-.885.508-1.339.606-.616.122-1.509.184-2.678.184h-1.684v4.823h-2.58zm2.581-10.624v3.629h1.413c1.018 0 1.698-.067 2.041-.201.343-.134.612-.343.807-.628s.292-.616.292-.994c0-.465-.137-.849-.41-1.151-.273-.303-.62-.491-1.038-.567-.308-.058-.928-.087-1.858-.087h-1.247zM111.146 36.528v-12.787h5.434c1.366 0 2.359.114 2.979.345.62.229 1.115.638 1.487 1.226.372.587.558 1.259.558 2.015 0 .959-.282 1.752-.846 2.377s-1.407 1.019-2.529 1.182c.558.326 1.019.684 1.382 1.073.364.39.854 1.081 1.47 2.075l1.562 2.495h-3.088l-1.867-2.782c-.663-.995-1.116-1.621-1.36-1.88-.245-.259-.503-.437-.776-.532-.273-.096-.707-.144-1.3-.144h-.523v5.338h-2.583zm2.582-7.379h1.91c1.239 0 2.012-.053 2.32-.157s.55-.285.724-.541.262-.575.262-.959c0-.431-.115-.778-.345-1.043-.229-.265-.554-.432-.973-.501-.209-.029-.837-.044-1.884-.044h-2.015v3.245zM123.515 30.213c0-1.302.195-2.396.584-3.279.291-.651.688-1.235 1.19-1.753s1.054-.901 1.653-1.151c.797-.338 1.715-.506 2.756-.506 1.884 0 3.392.584 4.523 1.753 1.131 1.169 1.696 2.794 1.696 4.876 0 2.064-.561 3.68-1.684 4.845-1.122 1.166-2.623 1.749-4.5 1.749-1.902 0-3.414-.58-4.536-1.74-1.121-1.161-1.682-2.758-1.682-4.794zm2.66-.087c0 1.448.334 2.546 1.003 3.293.668.747 1.518 1.121 2.547 1.121s1.874-.371 2.534-1.112c.66-.742.99-1.854.99-3.337 0-1.465-.321-2.559-.964-3.279s-1.496-1.082-2.56-1.082-1.922.365-2.573 1.095c-.652.73-.977 1.83-.977 3.301zM141.196 36.528l-4.571-12.787h2.8l3.236 9.464 3.131-9.464h2.739l-4.579 12.787h-2.756zM149.77 36.528v-12.787h2.582v12.787h-2.582zM154.803 23.741h4.719c1.064 0 1.875.081 2.434.244.75.221 1.393.613 1.928 1.178.535.563.942 1.255 1.221 2.071.279.817.418 1.824.418 3.022 0 1.053-.131 1.96-.392 2.722-.32.93-.776 1.684-1.37 2.259-.448.437-1.053.776-1.814 1.021-.57.181-1.332.271-2.285.271h-4.858v-12.788zm2.582 2.163v8.47h1.927c.721 0 1.242-.041 1.562-.122.419-.104.766-.282 1.042-.532.276-.25.501-.661.676-1.234.174-.572.262-1.354.262-2.342s-.087-1.747-.262-2.276-.418-.942-.732-1.239c-.314-.296-.712-.497-1.195-.602-.36-.081-1.067-.122-2.12-.122h-1.16zM167.712 36.528v-12.787h9.481v2.163h-6.9v2.835h6.419v2.154h-6.419v3.48h7.144v2.154h-9.725zM179.636 36.528v-12.787h5.435c1.365 0 2.359.114 2.979.345.619.229 1.115.638 1.486 1.226.373.587.559 1.259.559 2.015 0 .959-.282 1.752-.846 2.377-.564.625-1.408 1.019-2.529 1.182.558.326 1.019.684 1.382 1.073.364.39.854 1.081 1.47 2.075l1.562 2.495h-3.088l-1.866-2.782c-.663-.995-1.117-1.621-1.361-1.88s-.503-.437-.775-.532c-.273-.096-.707-.144-1.301-.144h-.523v5.338h-2.584zm2.581-7.379h1.91c1.239 0 2.013-.053 2.32-.157.309-.104.551-.285.725-.541s.262-.575.262-.959c0-.431-.115-.778-.345-1.043s-.554-.432-.973-.501c-.209-.029-.837-.044-1.884-.044h-2.016v3.245zM191.873 32.367l2.513-.244c.151.844.458 1.463.92 1.858s1.086.593 1.871.593c.831 0 1.458-.176 1.88-.527s.633-.764.633-1.234c0-.303-.09-.56-.267-.771-.177-.213-.487-.397-.929-.555-.303-.104-.992-.29-2.067-.558-1.384-.344-2.354-.765-2.913-1.265-.785-.704-1.178-1.562-1.178-2.573 0-.651.185-1.261.554-1.828.369-.566.901-.998 1.597-1.295.694-.297 1.533-.444 2.516-.444 1.605 0 2.813.352 3.625 1.055.811.704 1.236 1.644 1.277 2.817l-2.582.113c-.11-.656-.348-1.129-.711-1.417s-.908-.432-1.635-.432c-.75 0-1.338.154-1.762.462-.273.198-.41.463-.41.794 0 .303.127.562.383.776.326.273 1.117.559 2.373.854 1.256.297 2.186.604 2.787.921.602.316 1.072.75 1.413 1.299.34.55.511 1.229.511 2.037 0 .732-.204 1.419-.611 2.059s-.982 1.115-1.727 1.426c-.744.312-1.672.467-2.783.467-1.616 0-2.857-.373-3.725-1.121-.866-.747-1.384-1.836-1.553-3.267zM208.883 30.213c0-1.302.194-2.396.584-3.279.291-.651.688-1.235 1.19-1.753s1.054-.901 1.653-1.151c.797-.338 1.715-.506 2.756-.506 1.885 0 3.392.584 4.523 1.753 1.131 1.169 1.695 2.794 1.695 4.876 0 2.064-.561 3.68-1.684 4.845-1.121 1.166-2.622 1.749-4.5 1.749-1.902 0-3.414-.58-4.535-1.74-1.122-1.161-1.682-2.758-1.682-4.794zm2.66-.087c0 1.448.334 2.546 1.003 3.293s1.518 1.121 2.547 1.121 1.874-.371 2.534-1.112c.66-.742.99-1.854.99-3.337 0-1.465-.322-2.559-.965-3.279s-1.496-1.082-2.56-1.082-1.922.365-2.573 1.095-.976 1.83-.976 3.301zM223.318 36.528v-12.787h8.766v2.163h-6.184v3.026h5.338v2.163h-5.338v5.435h-2.582zM239.098 36.528v-12.787h2.582v12.787h-2.582zM247.018 36.528v-10.624h-3.795v-2.163h10.162v2.163h-3.785v10.624h-2.582z"/></g><g enable-background="new" fill="#243E8F"><path d="M107.404 49.827l2.503.794c-.384 1.396-1.022 2.432-1.915 3.109s-2.025 1.016-3.397 1.016c-1.698 0-3.094-.58-4.187-1.74s-1.64-2.746-1.64-4.758c0-2.128.549-3.781 1.648-4.959s2.544-1.766 4.335-1.766c1.564 0 2.835.462 3.812 1.387.582.546 1.018 1.331 1.308 2.354l-2.556.611c-.151-.663-.466-1.187-.946-1.57-.479-.384-1.063-.576-1.749-.576-.948 0-1.717.341-2.307 1.021-.59.681-.885 1.783-.885 3.307 0 1.616.291 2.768.873 3.454.581.686 1.337 1.029 2.268 1.029.686 0 1.276-.219 1.771-.654.494-.437.849-1.123 1.064-2.059zM111.6 48.213c0-1.302.195-2.396.584-3.279.291-.651.688-1.235 1.19-1.753s1.054-.901 1.653-1.151c.797-.338 1.715-.506 2.756-.506 1.884 0 3.392.584 4.523 1.753 1.131 1.169 1.696 2.794 1.696 4.876 0 2.064-.561 3.68-1.684 4.845-1.122 1.166-2.623 1.749-4.5 1.749-1.902 0-3.414-.58-4.536-1.74-1.121-1.161-1.682-2.758-1.682-4.794zm2.66-.087c0 1.448.334 2.546 1.003 3.293.668.747 1.518 1.121 2.547 1.121s1.874-.371 2.534-1.112c.66-.742.99-1.854.99-3.337 0-1.465-.321-2.559-.964-3.279s-1.496-1.082-2.56-1.082-1.922.365-2.573 1.095-.977 1.83-.977 3.301zM126.044 54.528v-12.787h2.512l5.233 8.539v-8.539h2.399v12.787h-2.591l-5.155-8.339v8.339h-2.398zM138.945 54.528v-12.787h2.512l5.233 8.539v-8.539h2.399v12.787h-2.591l-5.155-8.339v8.339h-2.398zM151.82 54.528v-12.787h9.481v2.163h-6.9v2.835h6.42v2.154h-6.42v3.48h7.144v2.154h-9.725zM171.916 49.827l2.504.794c-.384 1.396-1.021 2.432-1.914 3.109s-2.026 1.016-3.398 1.016c-1.698 0-3.094-.58-4.187-1.74s-1.64-2.746-1.64-4.758c0-2.128.549-3.781 1.648-4.959s2.544-1.766 4.335-1.766c1.564 0 2.835.462 3.812 1.387.582.546 1.018 1.331 1.309 2.354l-2.556.611c-.151-.663-.466-1.187-.946-1.57-.479-.384-1.063-.576-1.749-.576-.948 0-1.717.341-2.307 1.021-.59.681-.885 1.783-.885 3.307 0 1.616.291 2.768.873 3.454.581.686 1.337 1.029 2.268 1.029.686 0 1.276-.219 1.771-.654.493-.437.847-1.123 1.062-2.059zM179.514 54.528v-10.624h-3.795v-2.163h10.162v2.163h-3.785v10.624h-2.582zM187.469 54.528v-12.787h2.582v12.787h-2.582zM195.772 54.528l-4.571-12.787h2.801l3.236 9.464 3.131-9.464h2.738l-4.578 12.787h-2.757zM204.347 54.528v-12.787h2.582v12.787h-2.582zM212.268 54.528v-10.624h-3.795v-2.163h10.162v2.163h-3.786v10.624h-2.581zM223.658 54.528v-5.382l-4.684-7.405h3.026l3.009 5.059 2.949-5.059h2.975l-4.702 7.423v5.364h-2.573zM236.201 50.367l2.513-.244c.151.844.458 1.463.92 1.858s1.086.593 1.871.593c.831 0 1.458-.176 1.88-.527s.633-.764.633-1.234c0-.303-.09-.56-.267-.771-.177-.213-.487-.397-.929-.555-.303-.104-.992-.29-2.067-.558-1.384-.344-2.354-.765-2.913-1.265-.785-.704-1.178-1.562-1.178-2.573 0-.651.185-1.261.554-1.828.369-.566.901-.998 1.597-1.295.694-.297 1.533-.444 2.516-.444 1.605 0 2.813.352 3.625 1.055.811.704 1.236 1.644 1.277 2.817l-2.582.113c-.11-.656-.348-1.129-.711-1.417s-.908-.432-1.635-.432c-.75 0-1.338.154-1.762.462-.273.198-.41.463-.41.794 0 .303.127.562.383.776.326.273 1.117.559 2.373.854 1.256.297 2.186.604 2.787.921.602.316 1.072.75 1.413 1.299.34.55.511 1.229.511 2.037 0 .732-.204 1.419-.611 2.059s-.982 1.115-1.727 1.426c-.744.312-1.672.467-2.783.467-1.616 0-2.857-.373-3.725-1.121-.866-.747-1.384-1.836-1.553-3.267zM248.248 48.213c0-1.302.194-2.396.584-3.279.291-.651.688-1.235 1.19-1.753s1.054-.901 1.653-1.151c.797-.338 1.715-.506 2.756-.506 1.885 0 3.392.584 4.523 1.753 1.131 1.169 1.695 2.794 1.695 4.876 0 2.064-.561 3.68-1.684 4.845-1.121 1.166-2.622 1.749-4.5 1.749-1.902 0-3.414-.58-4.535-1.74-1.121-1.161-1.682-2.758-1.682-4.794zm2.66-.087c0 1.448.334 2.546 1.003 3.293s1.518 1.121 2.547 1.121 1.874-.371 2.534-1.112c.66-.742.99-1.854.99-3.337 0-1.465-.322-2.559-.965-3.279s-1.496-1.082-2.56-1.082-1.922.365-2.573 1.095-.976 1.83-.976 3.301zM262.736 54.528v-12.682h2.581v10.528h6.42v2.154h-9.001zM273.561 41.741h2.582v6.926c0 1.099.031 1.812.096 2.137.109.523.373.943.789 1.261.416.316.984.476 1.705.476.732 0 1.285-.15 1.657-.449.372-.3.597-.668.672-1.104.075-.437.113-1.16.113-2.172v-7.074h2.582v6.716c0 1.535-.069 2.62-.21 3.254-.139.634-.396 1.169-.771 1.604-.375.437-.877.784-1.504 1.043-.629.259-1.449.388-2.461.388-1.221 0-2.146-.141-2.777-.423s-1.13-.648-1.496-1.099c-.367-.451-.607-.924-.725-1.418-.168-.732-.252-1.814-.252-3.244v-6.822zM289.357 54.528v-10.624h-3.795v-2.163h10.162v2.163h-3.786v10.624h-2.581zM297.312 54.528v-12.787h2.582v12.787h-2.582zM301.83 48.213c0-1.302.195-2.396.584-3.279.291-.651.688-1.235 1.191-1.753.502-.518 1.054-.901 1.652-1.151.797-.338 1.715-.506 2.756-.506 1.885 0 3.393.584 4.523 1.753s1.696 2.794 1.696 4.876c0 2.064-.562 3.68-1.684 4.845-1.122 1.166-2.622 1.749-4.501 1.749-1.901 0-3.413-.58-4.535-1.74-1.121-1.161-1.682-2.758-1.682-4.794zm2.66-.087c0 1.448.334 2.546 1.004 3.293.668.747 1.518 1.121 2.547 1.121s1.873-.371 2.533-1.112c.66-.742.99-1.854.99-3.337 0-1.465-.321-2.559-.964-3.279s-1.496-1.082-2.56-1.082-1.922.365-2.574 1.095c-.65.73-.976 1.83-.976 3.301zM316.274 54.528v-12.787h2.513l5.232 8.539v-8.539h2.399v12.787h-2.591l-5.154-8.339v8.339h-2.399zM328.494 50.367l2.513-.244c.151.844.458 1.463.92 1.858s1.086.593 1.871.593c.831 0 1.458-.176 1.88-.527s.633-.764.633-1.234c0-.303-.09-.56-.267-.771-.177-.213-.487-.397-.929-.555-.303-.104-.992-.29-2.067-.558-1.384-.344-2.354-.765-2.913-1.265-.785-.704-1.178-1.562-1.178-2.573 0-.651.185-1.261.554-1.828.369-.566.901-.998 1.597-1.295.694-.297 1.533-.444 2.516-.444 1.605 0 2.813.352 3.625 1.055.811.704 1.236 1.644 1.277 2.817l-2.582.113c-.11-.656-.348-1.129-.711-1.417s-.908-.432-1.635-.432c-.75 0-1.338.154-1.762.462-.273.198-.41.463-.41.794 0 .303.127.562.383.776.326.273 1.117.559 2.373.854 1.256.297 2.186.604 2.787.921.602.316 1.072.75 1.413 1.299.34.55.511 1.229.511 2.037 0 .732-.204 1.419-.611 2.059s-.982 1.115-1.727 1.426c-.744.312-1.672.467-2.783.467-1.616 0-2.857-.373-3.725-1.121-.866-.747-1.384-1.836-1.553-3.267z"/></g></svg>